<?xml version="1.0" encoding="UTF-8"?><svg id="_レイヤー_2" xmlns="http://www.w3.org/2000/svg" viewBox="0 0 890.88 92.6"><defs><style>.cls-1{stroke-width:0px;}</style></defs><g id="_レイヤー_1-2"><path class="cls-1" d="m508.89,16.54c0-3.01-.1-5.86.02-8.7.19-4.37,2.5-6.4,7.03-6.38,4.48.03,6.76,2.16,6.85,6.53.06,2.83.01,5.67.01,8.68,4.46.21,8.18,1.03,9.1,6.28,1.36-4.74,2.72-9.48,4.07-14.22,1.43-5.02,5.43-6.86,10.16-4.67,2.87,1.33,3.67,3.23,3.31,7.99,3.04,1.41,3.17-.44,3.2-2.71.1-6.28,1.85-7.95,8.07-7.9,5.65.05,7.54,1.95,7.67,7.7.02.98.1,1.95.18,3.42,4.81,0,9.52-.1,14.22.03,4.82.13,7.51,3.8,6.29,8.39-.87,3.28-3.22,4.55-6.43,4.56-4.59.01-9.19,0-14.02,0v13.93c5.29,0,10.6-.05,15.91.01,5.12.06,7.63,2.91,7.04,7.83-.4,3.41-2.43,5.36-5.95,5.45-4.11.1-8.23.02-13.1.02.84,1.59,1.23,2.9,2.07,3.8,4.2,4.56,8.15,9.47,12.9,13.4,5.98,4.95,4.39,8.63,1.65,13.68-1.35,2.48-4.41,2.82-6.75.6-3.97-3.75-7.62-7.84-11.35-11.83-.83-.89-1.46-1.97-3.09-2.87v5.55c0,2.74,0,5.47,0,8.21,0,7.74-3.04,10.25-10.75,8.89-3.24-.57-5.05-2.88-5.1-6.77-.06-5.3-.02-10.6-.02-16.44-4.52,4.21-8.56,7.99-12.63,11.73-.91.84-1.94,1.56-2.94,2.31-6.16,4.55-8.31,4.05-11.75-2.71-.39-.76-.85-1.48-1.98-2.19,0,2.5.04,4.99,0,7.49-.08,4.47-2.24,6.58-6.7,6.64-4.75.07-7.11-1.96-7.19-6.57-.12-7.46-.04-14.93-.06-22.39,0-.57-.16-1.14-.38-2.64-1.4,3.11-2.31,5.49-3.54,7.69-.53.94-1.72,2.11-2.6,2.1-.91,0-2.18-1.13-2.65-2.08-2.72-5.49-3.21-10.75-.18-16.68,3.41-6.66,5.57-13.95,8.61-21.83-6.12.13-10.3-1.02-9.95-7.15.24-4.13,1.98-5.16,10.72-6.24Zm27.64,36.4c1.17,4.1-1.33,6.03-4.19,7.05-6.86,2.46-6.58-4.56-9.29-7.93v22.15c9.98-5.63,18.6-11.88,25.51-21.27h-12.03Zm-11.6-23.01c1.55,3.11,2.74,5.69,4.11,8.15.35.63,1.3,1.31,1.99,1.32,7.07.1,14.14.06,21.62.06,0-3.58.19-6.67-.08-9.73-.12-1.42-.96-3.8-1.77-3.93-2.34-.38-5.41-1.3-6.34,2.52-.29,1.19-.96,2.29-1.43,3.44-1.19,2.92-3.15,4.8-6.52,4.52-4.56-.38-7.58-2.73-8.33-6.35h-3.24Z"/><path class="cls-1" d="m54.26,73.49c0,4.45.06,8.26-.01,12.06-.1,5.11-2.13,6.76-8.07,6.77-6,0-8.02-1.63-8.14-6.7-.09-3.6-.07-7.21-.12-10.81,0-.21-.22-.41-.53-.96-1.73,1.14-3.37,2.42-5.17,3.38-7.35,3.94-14.67,7.95-22.17,11.6-4.31,2.09-7.3.29-9.4-4.93-1.56-3.88-.3-6.14,4.03-8.01,8.55-3.7,17.04-7.54,25.55-11.33-.1-.41-.19-.82-.29-1.23-.99-.09-1.99-.25-2.98-.26-3.75-.03-7.5,0-11.24-.01-6.89-.01-8.4-1.5-8.41-8.28-.01-7.34,0-14.68,0-22.01,0-7.62,1.33-8.96,8.86-8.96,7.1,0,14.2,0,21.58,0,.08-1.36.14-2.4.21-3.63-.82-.17-1.4-.39-1.98-.39-9.49-.03-18.99.01-28.48-.05-4.14-.02-6.35-1.72-6.79-4.94C.07,10.26,2.43,7.63,7.42,7.58c8.87-.09,17.74-.07,26.61,0,2.31.02,4.13-.04,4.36-3.07.08-1.03,1.19-2.2,2.14-2.89,4.38-3.19,11.71-.76,13.82,4.22.38.89,2.24,1.62,3.43,1.64,8.99.14,17.99.04,26.98.1,4.23.03,6.35,1.65,6.81,4.89.63,4.5-1.77,7.22-6.7,7.26-9.12.08-18.24.1-27.36-.02-2.99-.04-3.82,1-2.76,4.1,7.35,0,14.69,0,22.03,0,6.57.01,8.18,1.6,8.19,8.13.01,8.08.04,16.17-.02,24.25-.04,4.86-1.95,6.78-6.82,6.85-5.22.08-10.44.02-16.78.02,1.85,1.24,2.74,2.02,3.78,2.51,7.32,3.44,14.63,6.93,22.04,10.17,4.7,2.05,6.04,4.15,4.48,8.1-2.18,5.52-5.21,7.18-10.05,4.74-8-4.03-15.8-8.46-23.67-12.74-1.05-.57-2.02-1.28-3.68-2.35Zm-24.25-34.27c1.86,0,3.78.26,5.57-.11.93-.19,1.62-1.49,2.42-2.29-.82-.78-1.6-2.17-2.47-2.23-3.71-.25-7.46-.25-11.17,0-.85.06-1.61,1.49-2.41,2.28.82.78,1.55,2.04,2.49,2.23,1.79.36,3.71.1,5.57.1Zm32.46-4.73c-1.99,0-4.01-.21-5.95.1-.84.14-2.19,1.5-2.08,2.07.18.95,1.31,2.39,2.11,2.44,3.84.26,7.71.26,11.55,0,.8-.05,1.91-1.52,2.08-2.48.1-.56-1.27-1.88-2.13-2.03-1.81-.32-3.71-.1-5.58-.1Zm-23.88,18.26c-.84-1.84-1.36-4.26-2.05-4.3-4.78-.33-9.6-.18-14.63-.18.09,1.86.15,3.06.23,4.48h16.46Zm15.88.24c4.29,0,8.15.01,12.01,0,4.22-.02,4.43-.31,3.25-4.45h-15.26v4.45Z"/><path class="cls-1" d="m822.14,29.57c-5.63,0-10.6.03-15.57,0-5.23-.04-7.22-1.92-7.24-6.8-.03-5.01,1.79-6.81,7.06-6.95,1.35-.04,2.7,0,4.57,0,0-2.67-.05-4.99,0-7.32.13-5.18,2.27-7.06,7.95-7.03,5.32.02,7.49,2.01,7.57,6.99.04,2.22,0,4.44,0,7.37,2.54,0,4.92-.36,7.13.11,1.74.37,4.09,1.4,4.69,2.77.96,2.22,2.14,2.61,4.21,2.57,4.97-.09,9.93-.03,15.44-.03,0-4.36-.03-8.29,0-12.22.05-5.15,2.12-6.96,7.89-6.96,5.68,0,7.84,1.89,7.91,6.98.05,3.61.03,7.21.06,10.82,0,.24.13.48.38,1.38,2.75,0,5.69-.04,8.64,0,4.73.07,6.78,2.03,6.82,6.43.04,4.63-1.99,6.65-6.9,6.78-2.62.07-5.24.09-7.86.16-.23,0-.46.18-.9.37v40.86c3.62,0,7.08-.06,10.53.01,4.39.09,6.42,2.35,6.36,6.93-.05,4.36-2.06,6.59-6.3,6.61-14.87.06-29.73.06-44.6,0-4.23-.02-6.23-2.26-6.28-6.62-.05-4.58,1.96-6.85,6.36-6.92,5-.08,9.99-.04,14.99-.01,1.64.01,2.93-.08,2.92-2.3-.05-12.8-.03-25.6-.03-39-6.9,0-13.6-.29-20.25.13-3.2.2-5.16,7.43-2.98,9.78,2.88,3.11,5.83,6.15,8.69,9.28,3.1,3.4,3.09,6.25.06,9.06-3.98,3.7-6.8,3.73-10.28.1-1.12-1.17-2.18-2.4-3.28-3.59-1-1.09-2.01-2.17-3.56-3.83-.14,1.67-.3,2.67-.3,3.68-.02,8.58.02,17.17-.02,25.75-.03,5.6-1.99,7.42-7.82,7.4-5.62-.02-7.49-1.8-7.51-7.27-.03-6.84,0-13.67,0-21.29-2.16,1.4-3.82,2.56-5.57,3.58-2.98,1.75-5.31.85-6.4-2.37-2.63-7.71-1.7-10.39,5.15-15.03,7.54-5.11,13.76-11.42,18.27-20.37Z"/><path class="cls-1" d="m122.76,78.69c-3.44,2.78-6.44,5.32-9.56,7.71-4.2,3.2-7.16,2.57-10.7-2.09-2.57-3.38-1.93-5.9,1.86-9.12,5.65-4.79,11.15-9.76,16.71-14.66-.18-.39-.36-.77-.54-1.16-1.8,0-3.6.08-5.4-.02-3.9-.22-6.08-2.22-6.15-6.08-.14-7.58-.14-15.17,0-22.76.07-4.1,2.24-6.1,6.42-6.11,20.36-.04,40.72-.04,61.09,0,4.15,0,6.27,2.03,6.34,6.19.12,7.46.12,14.92,0,22.39-.07,4.29-2.22,6.23-6.62,6.38-1.82.06-3.64.01-6.14.01,6.22,5.37,11.75,10.31,17.46,15.02,5.61,4.63,3.85,9.31-1.49,13.01-2.28,1.58-4.76,1.07-6.89-.77-5.19-4.48-10.41-8.92-15.58-13.42-3.04-2.65-3.29-5.31-.82-8.46,1.22-1.55,2.53-3.03,4.2-5.02h-11.8c0,2.84.06,5.66-.01,8.48-.12,4.85-.13,9.7-.53,14.53-.48,5.87-2.85,8.41-8.65,8.78-5.6.36-11.24.24-16.85.04-3.07-.11-5.1-1.97-5.58-5.08-.37-2.4-.48-4.84-.76-7.79Zm44.18-42.88h-42.1c0,3.59-.12,7.04.11,10.46.04.63,1.44,1.67,2.23,1.68,12.48.11,24.95.11,37.43,0,.78,0,2.19-1.05,2.23-1.67.22-3.43.11-6.87.11-10.47Zm-43.18,42.77c4.19,0,7.93.17,11.64-.1,1.13-.08,3.08-1.33,3.12-2.12.27-5.52.14-11.07.14-16.76h-12.96c1.57,3.06,4.65,6.31,4.39,9.27-.28,3.13-3.74,5.99-6.33,9.71Z"/><path class="cls-1" d="m236.99,16.87c0-3.13-.05-5.61.01-8.08.09-4.14,2.02-6.09,6.19-6.33,1-.06,2-.04,3-.02,4.98.13,6.76,1.88,6.9,6.78.06,2.11.06,4.22.14,6.33.01.34.28.67.56,1.31,7.75,0,15.61-.01,23.46,0,5.84.01,7.75,1.77,7.63,7.51-.17,7.7.12,15.49-1.02,23.06-2.87,19.03-14.87,30.37-32.86,35.72-6.06,1.8-12.42,2.67-18.69,3.65-4.56.71-6.83-1.79-7.53-7.55-.51-4.21,1.27-6.11,5.8-6.97,6.22-1.19,12.6-2.09,18.53-4.19,12.37-4.39,18.38-13.89,19.4-26.67.26-3.31.04-6.66.04-10.28h-46.47c0,4.43.02,8.74,0,13.05-.04,5.35-1.96,7.12-7.66,7.13-5.99.01-7.96-1.72-8-7.2-.05-6.72-.04-13.43,0-20.15.03-5.27,1.93-7.09,7.3-7.11,7.59-.02,15.18,0,23.3,0Z"/><path class="cls-1" d="m648.06,14.48c1.08-5.68-2.44-13.6,7.87-13.57,10.04.03,6.54,7.95,8.07,13.29h10.89c-2.06-1.4-3.34-2.23-4.58-3.12-2.98-2.14-3.65-4.59-2.05-7.35,1.63-2.82,4.93-4.22,7.67-2.79,2.97,1.55,6.15,3.17,8.34,5.57,1.51,1.65,1.48,4.69,2.38,8.01,3.01,1.5,4.33,3.92,3.2,7.96-1.08,3.86-4.09,4.52-7.64,4.44-5.73-.12-11.46-.03-17.94-.03,2.03,16.94,2.95,33.63,11.22,48.58.62,0,1.23-.01,1.85-.02.65-2.53,1.47-5.04,1.89-7.61.46-2.8.68-5.66,4.33-5.98,2.92-.26,7.01,2.93,7.92,5.93,1.84,6.09-3.17,19.49-8.73,22.64-4.95,2.81-10.08,1.75-13.94-1.7-3.71-3.32-7.06-7.47-9.32-11.89-5.84-11.45-7.79-24.04-9.21-36.68-.37-3.34-.75-6.68-.86-10.03-.09-2.62-1.24-3.31-3.74-3.29-13.25.1-26.49.07-39.74.02-4.28-.02-6.53-2.11-6.67-5.87-.15-4.16,2.17-6.46,6.8-6.48,12.37-.05,24.74-.02,37.12-.02,1.59,0,3.18,0,4.87,0Z"/><path class="cls-1" d="m461.6,27.04c-1.82,0-3.28,0-4.75,0-15.24,0-30.48.02-45.72,0-7-.01-10.33-5.05-7.63-11.57,1.3-3.15,4.01-3.7,7.09-3.69,16.74.04,33.48.02,50.22.02,1.34,0,2.68,0,4.37,0-.42-1.23-.62-2.05-.97-2.81-1.4-3.03-.54-5.43,2.29-6.92,2.75-1.45,5.29-.54,6.81,1.98,3.61,6.01,6.97,12.22,5.82,19.6-1.14,7.35-1.92,14.84-3.99,21.94-6.37,21.85-22.13,33.79-43.57,39.2-4.22,1.06-8.54,1.86-12.87,2.34-5.01.56-7.16-1.86-7.84-8.12-.45-4.17,1.25-5.95,6-6.81,4.41-.8,8.83-1.67,13.13-2.9,17.05-4.85,26.88-16.31,30.41-33.41.3-1.46.59-2.92.8-4.4.17-1.23.23-2.47.4-4.46Z"/><path class="cls-1" d="m775.1,60.28c3.67,7.76,7.02,14.81,10.35,21.87,2.12,4.48,1.65,6.98-1.57,8.63-5.31,2.72-9.47,2-11.5-2.46-1.19-2.62-2.76-2.93-5.26-2.73-18.3,1.48-36.6,2.87-54.91,4.25-5.29.4-7.95-2.01-8-6.91-.03-3.27,1.58-5.08,4.67-5.79.24-.06.51-.17.73-.13,7.95,1.48,10.96-3.67,13.38-9.74.86-2.16,1.98-4.23,3.29-6.99-6.49,0-12.4.03-18.32,0-5.06-.03-7.36-2.58-6.87-7.49.36-3.55,2.51-5.3,6.79-5.31,17.12-.03,34.24-.01,51.36-.01,7.25,0,14.5-.04,21.74.01,4.66.03,6.76,2.15,6.7,6.55-.06,4.14-2.2,6.17-6.65,6.26-1.74.03-3.48,0-5.95,0Zm-39.01,15.31c10.15-.86,19.45-1.64,28.98-2.45-3.37-8.12-3.35-8.18,5.34-12.85-8.85,0-17.13-.04-25.42.06-.79,0-1.93.72-2.28,1.42-2.18,4.28-4.17,8.65-6.62,13.81Z"/><path class="cls-1" d="m773.01,34.47c-1.78,5.49-2.93,6.31-8.64,6.31-13.49,0-26.98.01-40.47,0-5.17,0-6.57-1.09-8-6.34-2.86,1.54-5.63,3.1-8.46,4.54-3.63,1.85-6.14,1.23-7.99-1.88-2.7-4.51-2.51-7.99.81-10.26,2.57-1.75,5.5-2.99,8.01-4.8,7.07-5.1,14.16-10.18,20.93-15.66,3.69-2.99,7.47-4.8,12.25-4.53,2.49.14,5.1-.42,7.47.14,3.28.79,6.75,1.8,9.5,3.65,9.79,6.61,19.24,13.71,28.96,20.43,4.17,2.88,4.93,5.77,2.07,10.81-2,3.52-4.48,4.01-8.89,1.69-2.52-1.33-5.01-2.73-7.55-4.11Zm-46.97-6.59h36.71c-6.34-5.4-12.36-10.54-18.38-15.67-6.09,5.2-12.08,10.32-18.33,15.67Z"/><path class="cls-1" d="m338.06,38.58c-5.43,0-10.28.04-15.13-.01-4.42-.04-6.81-2.21-6.9-6.1-.09-4.05,2.41-6.51,6.88-6.53,14.99-.04,29.98-.04,44.97,0,4.46.01,6.97,2.48,6.87,6.54-.09,3.89-2.49,6.04-6.91,6.09-4.85.05-9.7.01-15.13.01,0,3.25,0,6.19,0,9.13,0,6.72.11,13.43-.05,20.14-.06,2.67.92,3.46,3.48,3.38,4.74-.15,9.49-.1,14.24-.02,4.44.07,6.78,2.26,6.79,6.17.01,3.9-2.37,6.3-6.68,6.31-16.74.06-33.47.06-50.21,0-4.3-.02-6.68-2.43-6.65-6.34.03-3.9,2.37-6.07,6.82-6.13,4.87-.07,9.75.1,14.61-.13,1.04-.05,2.87-1.37,2.88-2.13.2-9.92.13-19.85.13-30.37Z"/><path class="cls-1" d="m616.74,48c-2.88,0-5.24.13-7.57-.03-3.78-.26-6.01-2.72-5.96-6.31.04-3.62,2.34-6.06,6.12-6.08,10.5-.08,21-.08,31.49,0,3.55.03,5.56,2.15,5.75,5.55.22,3.98-1.54,6.41-5.28,6.77-2.59.25-5.23.05-8.21.05v23.7c3.72-.7,7.33-1.34,10.93-2.06,4.7-.94,7.13.34,8,4.27.94,4.26-.92,7.24-5.48,8.05-12.65,2.25-25.32,4.38-38.01,6.44-3.54.58-6.2-1.66-6.86-5.33-.7-3.92.74-6.54,4.41-7.37,2.67-.61,5.47-.61,8.13-1.24.98-.23,2.42-1.47,2.44-2.28.18-7.82.11-15.64.11-24.13Z"/><path class="cls-1" d="m145.91,20.02c-12.98,0-25.96.03-38.95-.01-4.86-.02-7.09-2.6-6.54-7.33.39-3.35,2.45-5.06,6.6-5.1,8.86-.08,17.73-.08,26.59,0,2.47.02,4.29-.08,4.61-3.28.11-1.15,1.67-2.49,2.89-3.13,5.01-2.61,10.64-.29,13,4.85.38.82,2.11,1.44,3.23,1.46,9.11.12,18.22.02,27.34.1,4.49.04,6.53,1.93,6.7,5.79.19,4.41-1.89,6.62-6.53,6.63-12.98.04-25.96.01-38.95.02Z"/><path class="cls-1" d="m485.7,15.97c-.75-.6-2.4-1.5-3.46-2.86-1.28-1.64-2.11-3.63-3.04-5.53-1.36-2.8-.62-5.19,1.99-6.71,2.57-1.49,5.23-1.07,6.98,1.35,1.51,2.09,2.77,4.45,3.65,6.86,1.25,3.45-1.54,7.02-6.12,6.89Z"/></g></svg>