<?xml version="1.0" encoding="UTF-8"?><svg id="_レイヤー_2" xmlns="http://www.w3.org/2000/svg" viewBox="0 0 93.1 9.71"><defs><style>.cls-1{fill:#6492c1;stroke-width:0px;}</style></defs><g id="_表"><path class="cls-1" d="m.35,8.22c1.25-.49,2.28-1.03,3.1-1.61.01,0,.02-.02.01-.03,0-.01-.02-.02-.03-.02H1.39c-.16,0-.3-.06-.42-.17s-.18-.25-.18-.42v-2.88c0-.16.06-.3.18-.42.12-.12.26-.17.42-.17h2.58c.06,0,.09-.03.09-.09v-.35c0-.06-.03-.08-.09-.08H.56c-.15,0-.28-.05-.38-.16-.1-.1-.15-.23-.15-.39s.05-.28.15-.39c.1-.11.23-.16.38-.16h3.41c.06,0,.09-.03.09-.08v-.13c0-.16.06-.3.17-.41.12-.12.25-.17.41-.17h.25c.16,0,.3.06.41.17.12.12.17.25.17.41v.13c0,.06.03.08.09.08h3.41c.15,0,.28.05.38.16.1.1.15.23.15.39s-.05.28-.15.39c-.1.11-.23.16-.38.16h-3.41c-.06,0-.09.03-.09.08v.35c0,.06.03.09.09.09h2.58c.16,0,.3.06.42.17.12.12.18.25.18.42v2.88c0,.16-.06.3-.18.42s-.26.17-.42.17h-2.04s-.02,0-.03.03,0,.03.02.04c.81.57,1.84,1.11,3.09,1.6.15.06.25.16.31.31.06.15.05.3-.02.44l-.04.08c-.08.15-.19.26-.35.32-.15.06-.31.05-.46-.02-1.24-.55-2.27-1.14-3.09-1.79-.05-.04-.07-.02-.07.03v1.53c0,.16-.06.3-.17.42-.12.12-.25.17-.41.17h-.25c-.16,0-.3-.06-.41-.17-.12-.12-.17-.25-.17-.42v-1.53s0-.02-.02-.03c-.01,0-.02,0-.03,0-.01,0-.02,0-.04.02-.82.65-1.85,1.25-3.09,1.78-.15.07-.31.08-.46.02-.15-.06-.26-.17-.34-.32l-.04-.08c-.07-.14-.08-.29-.02-.44.06-.15.16-.25.31-.31Zm1.75-4.64v.43c0,.06.03.08.09.08h1.77c.06,0,.09-.03.09-.08v-.43c0-.06-.03-.09-.09-.09h-1.77c-.06,0-.09.03-.09.09Zm.09,2.04h1.77c.06,0,.09-.03.09-.08v-.47c0-.06-.03-.08-.09-.08h-1.77c-.06,0-.09.03-.09.08v.47c0,.06.03.08.09.08Zm3.3-2.04v.43c0,.06.03.08.09.08h1.77c.06,0,.09-.03.09-.08v-.43c0-.06-.03-.09-.09-.09h-1.77c-.06,0-.09.03-.09.09Zm0,1.48v.47c0,.06.03.08.09.08h1.77c.06,0,.09-.03.09-.08v-.47c0-.06-.03-.08-.09-.08h-1.77c-.06,0-.09.03-.09.08Z"/><path class="cls-1" d="m11.01,2.01c-.15,0-.29-.05-.39-.16s-.16-.24-.16-.39.05-.29.16-.4c.11-.11.24-.17.39-.17h3.39c.06,0,.09-.03.09-.08v-.13c0-.16.06-.3.17-.41.12-.12.25-.17.41-.17h.25c.16,0,.3.06.41.17.12.12.17.25.17.41v.13c0,.06.03.08.09.08h3.39c.15,0,.29.06.39.17.11.11.16.25.16.4s-.05.29-.16.39-.24.16-.39.16h-8.4Zm2.31,4.58c.13.11.2.25.22.41.02.17-.03.31-.14.44-.52.6-1.11,1.15-1.79,1.66-.14.1-.29.13-.45.11-.16-.02-.29-.1-.4-.23l-.05-.05c-.1-.12-.15-.26-.12-.42.02-.16.1-.29.23-.39.62-.47,1.16-.97,1.64-1.49.11-.12.25-.19.41-.21s.3.03.43.13l.03.03Zm.17,3.02c-.17,0-.31-.07-.43-.19-.12-.12-.18-.26-.19-.43,0-.15.04-.29.15-.4.11-.12.24-.17.4-.16.22.01.46.02.71.02.22,0,.36-.02.4-.06s.06-.18.06-.42v-1.82c0-.06-.03-.09-.09-.09h-2.48c-.16,0-.3-.06-.42-.18-.12-.12-.18-.26-.18-.42v-2.31c0-.16.06-.3.18-.42.12-.12.26-.17.42-.17h6.36c.16,0,.3.06.42.17.12.12.18.25.18.42v2.31c0,.16-.06.3-.18.42-.12.12-.26.18-.42.18h-2.27c-.06,0-.09.03-.09.09v1.77c0,.29,0,.51-.02.68-.01.16-.04.32-.08.46s-.1.25-.16.31-.16.12-.29.17c-.14.05-.28.07-.44.08-.16.01-.37.02-.65.02-.2,0-.5,0-.9-.03Zm-.57-4.59h4.58c.06,0,.09-.03.09-.09v-1.27c0-.06-.03-.09-.09-.09h-4.58c-.06,0-.09.03-.09.09v1.27c0,.06.03.09.09.09Zm4.14,2.49c-.13-.1-.2-.23-.21-.39-.01-.16.03-.3.14-.42l.06-.07c.11-.13.25-.2.42-.22.16-.02.31.03.45.13.63.5,1.22,1.04,1.78,1.6.11.12.17.26.17.42s-.06.31-.18.43l-.06.06c-.11.12-.25.18-.41.18s-.3-.06-.42-.18c-.55-.55-1.12-1.06-1.73-1.54Z"/><path class="cls-1" d="m22.17,5.37c-.16,0-.3-.06-.42-.18-.12-.12-.18-.26-.18-.42v-2.34c0-.16.06-.3.18-.42.12-.12.26-.18.42-.18h2.6c.06,0,.09-.03.09-.08v-.89c0-.16.06-.3.17-.42s.25-.18.41-.18h.21c.16,0,.3.06.42.18.12.12.18.26.18.42v.89c0,.06.03.08.09.08h2.74c.16,0,.3.06.42.18.12.12.18.26.18.42v1.37c0,1.57-.46,2.82-1.39,3.72-.93.91-2.3,1.45-4.13,1.62-.17.01-.32-.03-.45-.14-.13-.11-.21-.24-.24-.41l-.02-.08c-.02-.15.02-.29.12-.42s.23-.2.39-.21c1.48-.15,2.56-.57,3.26-1.23.7-.67,1.04-1.62,1.04-2.85v-.64c0-.06-.03-.09-.08-.09h-5.18c-.06,0-.09.03-.09.09v1.62c0,.16-.06.3-.17.42-.12.12-.25.18-.42.18h-.18Z"/><path class="cls-1" d="m33.31,8.8c-.15,0-.29-.06-.4-.17-.11-.11-.17-.24-.17-.4s.06-.3.17-.41c.11-.11.24-.17.4-.17h2c.06,0,.09-.03.09-.08v-3.55c0-.06-.03-.08-.09-.08h-1.74c-.15,0-.29-.06-.4-.17-.11-.11-.17-.25-.17-.41s.06-.29.17-.4c.11-.11.25-.17.4-.17h5c.15,0,.29.06.4.17.11.11.17.25.17.4s-.06.3-.17.41c-.11.11-.25.17-.4.17h-1.74c-.06,0-.09.03-.09.08v3.55c0,.06.03.08.09.08h2c.15,0,.29.06.4.17.11.11.17.25.17.41s-.06.29-.17.4c-.11.11-.25.17-.4.17h-5.5Z"/><path class="cls-1" d="m42.74,2.64c-.16,0-.3-.06-.41-.18-.12-.12-.17-.26-.17-.42v-.14c0-.16.06-.3.17-.42.12-.12.25-.18.41-.18h5.86s.04,0,.05-.03c.01-.02,0-.03,0-.05-.02-.03-.05-.07-.07-.14-.03-.06-.05-.11-.07-.15-.08-.13-.09-.27-.04-.42.05-.15.14-.26.27-.33.13-.07.27-.08.42-.04.15.04.26.13.33.27.09.17.22.42.39.76.19.38.27.76.25,1.14-.11,2.07-.68,3.66-1.71,4.76-1.03,1.1-2.57,1.79-4.61,2.06-.17.02-.32-.02-.45-.12-.13-.1-.22-.23-.25-.39l-.02-.13c-.03-.15,0-.3.09-.42.09-.13.22-.21.38-.23,1.64-.22,2.86-.74,3.66-1.54.8-.8,1.27-2,1.41-3.59,0-.06-.03-.08-.08-.08h-5.79ZM51.09.3c.03.07.09.17.15.3.07.13.11.23.14.28.07.14.08.28.03.42-.05.14-.14.25-.28.32-.14.07-.28.08-.43.03s-.25-.14-.33-.28c-.06-.13-.16-.32-.3-.57-.07-.14-.08-.28-.04-.42.05-.14.14-.25.28-.32.14-.07.29-.08.44-.03.15.05.27.14.34.27Z"/><path class="cls-1" d="m52.17,7.14l-.13-.26c-.16-.34-.15-.69.03-1.05.44-.85.76-1.75.96-2.71.01-.06-.01-.08-.07-.08h-.35c-.15,0-.29-.06-.4-.17-.12-.12-.17-.25-.17-.4s.06-.29.17-.4c.12-.12.25-.17.4-.17h.53c.06,0,.08-.03.08-.09v-1c0-.16.06-.3.18-.42s.26-.17.42-.17h.07c.16,0,.3.06.41.17.12.12.17.25.17.42v1c0,.06.03.09.09.09h.35c.15,0,.29.06.4.17.12.12.17.25.17.4s-.06.29-.17.4c-.12.12-.25.17-.4.17h-.18s-.04,0-.05.03c-.01.02-.01.03,0,.05.04.08.1.21.18.36.08.16.15.3.21.43.06.13.12.25.18.37.02.05.06.06.12.03.08-.04.17-.06.26-.06h2.12c.06,0,.08-.03.08-.09v-1.52c0-.06-.03-.08-.08-.08h-.82s-.09.03-.12.09c-.1.27-.22.56-.37.85-.07.15-.19.25-.35.3s-.32.05-.48-.02l-.03-.02c-.15-.07-.25-.18-.3-.33-.05-.15-.04-.3.03-.44.32-.67.56-1.37.72-2.12.04-.16.12-.29.26-.38.14-.09.29-.13.45-.1h.01c.16.03.29.11.39.24.1.13.13.28.1.44,0,.03-.02.07-.03.12-.01.05-.02.09-.03.12-.01.06.01.08.07.08h.47c.06,0,.08-.03.08-.09v-.5c0-.16.06-.3.18-.42s.26-.17.42-.17h.19c.16,0,.3.06.42.17s.18.25.18.42v.5c0,.06.03.09.09.09h1.64c.16,0,.3.06.41.17.11.11.17.25.17.41s-.06.3-.17.41c-.11.11-.25.17-.41.17h-1.64c-.06,0-.09.03-.09.08v1.52c0,.06.03.09.09.09h1.88c.16,0,.3.06.42.17.12.12.18.25.18.41s-.06.3-.18.42c-.12.12-.26.18-.42.18h-1.51s-.04.01-.05.03c-.01.02-.01.04,0,.05.41.79,1.03,1.5,1.85,2.13.14.1.23.24.28.4.05.16.03.33-.04.49l-.05.14c-.06.14-.17.23-.31.27s-.28.01-.4-.08c-.66-.53-1.23-1.18-1.7-1.93,0,0-.02-.01-.03-.01s-.02,0-.02.02v2.18c0,.16-.06.3-.17.42-.12.12-.25.17-.41.17h-.2c-.16,0-.3-.06-.41-.17-.12-.12-.17-.25-.17-.42v-2.15s0-.02-.03-.03c-.02,0-.03,0-.04.01-.6.76-1.3,1.4-2.08,1.94-.13.09-.28.12-.43.07-.15-.04-.27-.14-.34-.28l-.05-.13c-.07-.15-.08-.31-.03-.47.05-.16.14-.28.28-.37,1.04-.67,1.82-1.41,2.36-2.22.01-.01.02-.03,0-.05-.01-.02-.03-.03-.05-.03h-1.54c-.06,0-.08.03-.06.08.09.3,0,.55-.26.74-.12.08-.25.1-.39.06s-.24-.13-.29-.26c-.02-.05-.08-.18-.17-.39-.09-.21-.16-.38-.2-.49,0-.01-.02-.02-.03-.02s-.02,0-.02.02v3.96c0,.16-.06.3-.17.42-.12.12-.25.17-.41.17h-.07c-.16,0-.3-.06-.42-.17-.12-.12-.18-.25-.18-.42v-3.21s0-.01-.01-.01-.01,0-.01.01c-.13.41-.3.83-.49,1.24-.06.11-.15.17-.27.17s-.21-.06-.27-.18Z"/><path class="cls-1" d="m63.18,2.73c-.15,0-.29-.06-.4-.17s-.17-.25-.17-.4.06-.29.17-.4c.11-.11.25-.17.4-.17h4.65c.06,0,.08-.03.08-.08,0-.17-.01-.44-.01-.81,0-.16.06-.3.17-.42s.25-.18.41-.18h.14c.16,0,.3.06.42.17.12.12.18.25.18.42,0,.02.01.29.03.82,0,.06.03.08.08.08h1.3s.02,0,.03-.02c0-.01,0-.02-.02-.03-.2-.13-.44-.29-.73-.47-.13-.08-.2-.19-.24-.33-.03-.14,0-.27.08-.39.09-.13.21-.21.36-.24s.29,0,.43.07c.32.2.59.36.8.5.13.09.21.22.24.38s0,.31-.1.44l-.02.03s0,.05.03.06c.15,0,.29.06.4.17.11.11.17.25.17.4s-.06.29-.17.4c-.11.11-.25.17-.4.17h-2.08c-.06,0-.08.03-.08.09.09,1.11.24,2.1.44,2.95.2.85.39,1.46.56,1.81.17.35.31.53.42.53.15,0,.28-.38.38-1.13.02-.15.09-.26.22-.33.13-.07.26-.09.39-.04l.05.02c.17.07.3.18.39.33.09.15.13.31.1.49-.1.74-.27,1.29-.52,1.66-.25.36-.54.55-.85.55s-.62-.11-.91-.34-.58-.59-.86-1.08c-.28-.49-.52-1.2-.73-2.13s-.35-2.02-.44-3.28c0-.06-.03-.09-.09-.09h-4.7Zm1.42,5.24c.06-.01.08-.05.08-.1v-2.86c0-.06-.03-.08-.09-.08h-.94c-.15,0-.29-.06-.39-.17s-.16-.25-.16-.4.05-.29.16-.39.24-.16.39-.16h3.51c.15,0,.29.05.39.16s.16.24.16.39-.05.29-.16.4-.24.17-.39.17h-.98c-.06,0-.09.03-.09.08v2.62c0,.06.03.09.09.07.25-.04.73-.14,1.43-.3.15-.03.28,0,.41.07s.2.2.23.35c.03.15,0,.3-.09.44-.09.14-.21.22-.36.26-1.16.29-2.56.55-4.21.78-.16.02-.31-.02-.44-.12-.13-.1-.21-.23-.24-.39-.02-.16.02-.3.12-.43.1-.13.22-.2.38-.22.51-.06.91-.12,1.2-.17Z"/><path class="cls-1" d="m73.02,3.75l-.04-.07c-.07-.15-.08-.31-.03-.46.05-.15.15-.27.3-.36,1.17-.66,2.23-1.41,3.19-2.26.3-.27.64-.4,1.03-.4h.59c.38,0,.73.13,1.03.4.92.82,1.98,1.57,3.2,2.26.14.08.23.2.28.36.05.16.04.32-.03.46l-.03.07c-.08.15-.19.25-.35.29s-.3.04-.44-.04c-.38-.2-.68-.38-.91-.53-.01-.01-.03-.02-.05,0s-.03.03-.03.05v.07c0,.16-.06.3-.17.42-.12.12-.25.18-.42.18h-4.77c-.16,0-.3-.06-.42-.18-.12-.12-.17-.26-.17-.42v-.07s-.01-.04-.03-.05-.04,0-.05,0c-.29.19-.6.37-.91.54-.14.08-.29.09-.44.04s-.27-.15-.34-.3Zm4.43,2.56c-.22.52-.49,1.1-.82,1.75-.04.06-.02.08.03.08,1.13-.08,2.26-.19,3.4-.32.02,0,.04,0,.05-.03.01-.02.01-.04,0-.06l-.22-.41c-.07-.14-.08-.29-.02-.44s.16-.25.3-.31l.08-.03c.15-.06.31-.07.48-.01s.29.16.36.31c.3.57.64,1.23,1.02,2,.07.14.07.28.01.43-.06.15-.17.25-.31.3l-.12.04c-.16.06-.32.06-.47,0-.15-.06-.27-.16-.34-.32-.01-.04-.04-.09-.08-.17s-.07-.13-.08-.17c-.03-.06-.07-.08-.12-.07-2.29.28-4.43.46-6.43.55-.16,0-.3-.04-.43-.15s-.19-.24-.19-.4c0-.15.04-.29.15-.41s.24-.18.4-.19c.09,0,.23,0,.4-.02.18-.01.31-.02.4-.02.06,0,.11-.03.15-.09.31-.57.61-1.19.9-1.86.03-.06.01-.08-.05-.08h-2.09c-.16,0-.3-.06-.41-.17-.11-.11-.17-.25-.17-.41s.06-.3.17-.41.25-.17.41-.17h7.88c.16,0,.3.06.41.17.11.11.17.25.17.41s-.06.3-.17.41c-.11.11-.25.17-.41.17h-4.13c-.06,0-.1.03-.13.09Zm-2.03-3.3s-.02.02-.02.03c0,.01.01.02.03.02h4.66s.02,0,.03-.02c0-.01,0-.02-.02-.03-.8-.55-1.56-1.17-2.27-1.86-.05-.04-.09-.04-.14,0-.69.67-1.45,1.28-2.28,1.86Z"/><path class="cls-1" d="m87.28,3.51c-.17.34-.34.64-.51.91-.03.06-.02.1.01.14.48.48.89.9,1.22,1.26.11.12.16.26.16.42,0,.17-.07.3-.2.42l-.04.03c-.12.11-.26.16-.42.15s-.3-.08-.41-.2c-.27-.3-.56-.62-.88-.95-.01-.01-.03-.02-.05-.01-.02,0-.03.02-.03.03v3.41c0,.16-.06.3-.17.42-.12.12-.25.17-.42.17h-.18c-.16,0-.3-.06-.42-.17-.12-.12-.18-.25-.18-.42v-2.58s-.02-.06-.06-.03c-.22.18-.45.35-.69.5-.13.08-.26.09-.39.03-.14-.06-.22-.16-.25-.3l-.06-.27c-.04-.18-.02-.34.05-.5.07-.16.18-.29.33-.38,1.05-.68,1.83-1.53,2.33-2.54.03-.06.01-.08-.05-.08h-1.89c-.16,0-.3-.06-.42-.18-.12-.12-.18-.26-.18-.42v-.03c0-.16.06-.3.18-.42.12-.12.26-.18.42-.18h.64c.06,0,.09-.03.09-.08v-.86c0-.16.06-.3.17-.42s.25-.17.41-.17h.18c.16,0,.3.06.42.17s.18.25.18.42v.86c0,.06.03.08.08.08h.68c.16,0,.3.06.42.18.12.12.18.26.18.42v.03c0,.43-.08.81-.25,1.14Zm5.22,4.67c.16,0,.3.06.42.17.12.12.18.25.18.41v.04c0,.16-.06.3-.18.42-.12.12-.26.17-.42.17h-4.65c-.16,0-.3-.06-.42-.17s-.18-.25-.18-.42v-.04c0-.16.06-.3.18-.41.12-.12.26-.17.42-.17h1.85c.06,0,.09-.03.09-.09V3.57c0-.06-.03-.08-.09-.08h-1.29c-.16,0-.3-.06-.42-.18s-.18-.26-.18-.42.06-.3.18-.42c.12-.12.26-.17.42-.17h1.29c.06,0,.09-.03.09-.09V.86c0-.16.06-.3.17-.42.12-.12.25-.18.42-.18h.21c.16,0,.3.06.42.18s.18.26.18.42v1.34c0,.06.03.09.09.09h1.08c.16,0,.3.06.41.17.12.12.17.25.17.42s-.06.3-.17.42c-.12.12-.25.18-.41.18h-1.08c-.06,0-.09.03-.09.08v4.51c0,.06.03.09.09.09h1.22Z"/></g></svg>